<svg xmlns="http://www.w3.org/2000/svg" width="22" height="22" viewBox="0 0 22 22" fill="none"><g clip-path="url(#clip0_207_7793)"><g clip-path="url(#clip1_207_7793)"><path d="M21.9995 8.95212C21.9995 9.33031 21.9995 9.70862 21.9995 10.087C21.9995 10.3012 21.8958 10.4332 21.6905 10.4892C21.2529 10.6093 20.8151 10.7298 20.3773 10.851C20.3011 10.8747 20.2236 10.894 20.1452 10.9087C20.0291 10.9259 19.9741 10.9925 19.9433 11.1013C19.8259 11.5184 19.6498 11.9123 19.4483 12.2949C19.428 12.3268 19.4173 12.3637 19.4173 12.4015C19.4173 12.4392 19.428 12.4762 19.4483 12.5081C19.7292 13.0001 20.0073 13.4937 20.2824 13.9888C20.363 14.1331 20.3305 14.3035 20.2002 14.4341C19.9454 14.6901 19.6901 14.9454 19.4343 15.2C19.1521 15.4832 18.8693 15.7657 18.5859 16.0475C18.4049 16.2269 18.2772 16.2464 18.0531 16.1231C17.5748 15.8578 17.0976 15.5901 16.6215 15.3197C16.5947 15.3042 16.5643 15.2958 16.5333 15.2955C16.5023 15.2952 16.4718 15.303 16.4447 15.3181C16.1202 15.4669 15.7942 15.6132 15.466 15.7537C15.3629 15.7982 15.2502 15.82 15.1437 15.8562C15.1292 15.8611 15.1157 15.8689 15.1043 15.8793C15.0929 15.8896 15.0838 15.9022 15.0774 15.9162C15.0154 16.1151 14.9574 16.3167 14.9007 16.5183C14.848 16.7063 14.8013 16.896 14.7472 17.084C14.6932 17.2719 14.6434 17.455 14.5814 17.6373C14.535 17.7759 14.4236 17.8442 14.2847 17.8694C14.2572 17.8733 14.2295 17.8746 14.2018 17.8734C13.4399 17.8734 12.6779 17.8734 11.9158 17.8734C11.694 17.8734 11.5587 17.7557 11.504 17.5418C11.4377 17.2862 11.3614 17.0332 11.2905 16.7793C11.2222 16.5356 11.1559 16.2912 11.0879 16.0472C11.074 15.9968 11.0693 15.9358 11.0375 15.9003C10.9962 15.862 10.9455 15.8353 10.8906 15.823C10.4679 15.703 10.07 15.5246 9.68212 15.3194C9.65533 15.3028 9.62444 15.294 9.59293 15.294C9.56142 15.294 9.53054 15.3028 9.50375 15.3194C9.34626 15.4099 9.18181 15.4888 9.02996 15.5876C8.93713 15.6486 8.86087 15.7355 8.78097 15.8151C8.31448 16.2793 7.85263 16.7491 7.3805 17.2076C7.27838 17.3071 7.26943 17.3976 7.29894 17.5219C7.39674 17.9477 7.41373 18.388 7.349 18.82C7.26343 19.4336 7.02162 20.015 6.64678 20.5083C6.17949 21.1546 5.50984 21.6263 4.74401 21.8488C4.24669 21.9891 3.74074 22.0434 3.22154 21.9688C2.87315 21.9169 2.53214 21.8239 2.20567 21.6916C1.94938 21.5872 1.86218 21.2719 2.08863 21.0541C2.51732 20.6396 2.93508 20.2136 3.35681 19.7921C3.57 19.5796 3.78119 19.3654 3.99571 19.1542C4.04776 19.1032 4.06865 19.0567 4.04643 18.9801C3.97581 18.7341 3.91647 18.4848 3.8475 18.2381C3.84206 18.2204 3.83288 18.204 3.82059 18.1901C3.80829 18.1762 3.79316 18.1651 3.77622 18.1575C3.59685 18.1045 3.41516 18.0581 3.23414 18.0117C3.16219 17.9928 3.08825 17.9805 3.0183 17.9566C2.94834 17.9328 2.9059 17.9536 2.85749 18.0024C2.32525 18.5366 1.79267 19.0696 1.25975 19.6012C1.14438 19.7162 1.03099 19.8333 0.911296 19.9437C0.713029 20.1257 0.439832 20.0687 0.327768 19.8273C0.0579539 19.2454 -0.0488448 18.6011 0.0187631 17.9633C0.0817536 17.2759 0.33848 16.6206 0.759114 16.0734C1.13133 15.5816 1.62031 15.1903 2.1818 14.9351C2.79947 14.6523 3.44765 14.5671 4.11838 14.6331C4.27424 14.6514 4.42859 14.6808 4.58023 14.7213C4.60687 14.7304 4.63565 14.7311 4.66273 14.7234C4.6898 14.7157 4.71388 14.6999 4.73175 14.6782C5.20023 14.208 5.66208 13.7306 6.14382 13.274C6.38883 13.0419 6.53836 12.7561 6.69353 12.4696C6.70183 12.4508 6.70626 12.4304 6.70655 12.4098C6.70683 12.3892 6.70297 12.3687 6.69519 12.3496C6.59937 12.1364 6.49029 11.9292 6.39911 11.7143C6.31987 11.5273 6.25787 11.333 6.18924 11.1414C6.17167 11.0923 6.16172 11.0399 6.13984 10.9929C6.12609 10.9705 6.10444 10.954 6.07917 10.9468C5.87593 10.8871 5.67169 10.8301 5.46779 10.7727C5.27063 10.7172 5.07435 10.663 4.87895 10.6099C4.74103 10.5718 4.6041 10.529 4.46452 10.4982C4.23807 10.4481 4.127 10.3191 4.127 10.088C4.127 9.32037 4.127 8.55281 4.127 7.78536C4.127 7.56288 4.22646 7.44153 4.44264 7.3835C4.76689 7.29697 5.08982 7.20513 5.41374 7.11826C5.60505 7.06587 5.79536 7.00984 5.98898 6.96773C6.10503 6.9422 6.15476 6.8739 6.18394 6.76879C6.29799 6.35898 6.47172 5.97305 6.668 5.59706C6.69165 5.55986 6.70388 5.51654 6.70318 5.47246C6.70247 5.42838 6.68886 5.38548 6.66402 5.34905C6.38585 4.86498 6.1153 4.37692 5.84277 3.89019C5.76021 3.74198 5.79238 3.57653 5.92931 3.43927C6.18416 3.17999 6.43945 2.92336 6.69519 2.66939C6.97601 2.38889 7.2628 2.11402 7.53633 1.82689C7.7021 1.6515 7.89076 1.64719 8.08073 1.75428C8.55485 2.02152 9.0293 2.28864 9.50408 2.55566C9.52956 2.57154 9.55874 2.5805 9.58874 2.58166C9.61874 2.58283 9.64852 2.57615 9.67516 2.56229C9.99776 2.41541 10.321 2.26952 10.6469 2.13126C10.755 2.08485 10.8727 2.06097 10.9841 2.02152C10.9984 2.01604 11.0114 2.00771 11.0223 1.99705C11.0333 1.9864 11.0419 1.97362 11.0478 1.95952C11.1423 1.63459 11.2324 1.30833 11.3253 0.983072C11.3962 0.73407 11.4665 0.485732 11.5428 0.238056C11.5643 0.168653 11.6078 0.108122 11.6667 0.0655982C11.7256 0.0230741 11.7967 0.000863371 11.8694 0.0023172C12.314 0.0023172 12.7586 0.0023172 13.2032 0.0023172C13.5371 0.0023172 13.8713 0.0072906 14.2055 0.000327845C14.4402 -0.00431399 14.5702 0.132952 14.6219 0.333877C14.6882 0.592162 14.7654 0.848127 14.8371 1.10509C14.905 1.34911 14.977 1.59182 15.036 1.83783C15.0662 1.96283 15.1282 2.02682 15.2528 2.0676C15.5164 2.15381 15.7744 2.25759 16.0313 2.36236C16.1762 2.42138 16.3158 2.49499 16.4554 2.56494C16.4807 2.57861 16.5093 2.58514 16.5381 2.58386C16.5669 2.58257 16.5948 2.57352 16.6188 2.55765C17.0936 2.29108 17.5688 2.02428 18.0445 1.75726C18.2338 1.65017 18.4198 1.64984 18.5958 1.82921C19.1263 2.36966 19.6667 2.90214 20.2029 3.43827C20.3474 3.58283 20.3706 3.7327 20.2712 3.91075C19.9969 4.39814 19.7223 4.88498 19.4476 5.37127C19.4297 5.39974 19.4197 5.43246 19.4186 5.46607C19.4175 5.49968 19.4253 5.53299 19.4413 5.56258C19.5907 5.89414 19.7367 6.2257 19.8793 6.55726C19.921 6.65673 19.9436 6.76183 19.9787 6.86262C19.9842 6.87693 19.9925 6.88999 20.003 6.90104C20.0136 6.91209 20.0263 6.9209 20.0404 6.92695C20.2433 6.98829 20.4472 7.04531 20.6515 7.10234C20.8504 7.15804 21.0493 7.21209 21.2482 7.26812C21.3838 7.30526 21.5181 7.34736 21.6547 7.37787C21.8868 7.42959 21.9965 7.55824 21.9975 7.79464C22.0002 8.18024 21.9995 8.56684 21.9995 8.95212ZM9.95034 14.638C9.97441 14.6607 10.0006 14.6811 10.0286 14.6987C10.1973 14.7793 10.3628 14.8691 10.5372 14.9348C10.8167 15.0399 11.1008 15.1314 11.3863 15.2242C11.5547 15.2793 11.6482 15.3917 11.6913 15.5614C11.7527 15.8011 11.8239 16.0389 11.8902 16.2773C11.9602 16.5263 12.0338 16.7746 12.1004 17.0243C12.1336 17.1453 12.1432 17.1605 12.2662 17.1605C12.7635 17.1605 13.2609 17.1625 13.7582 17.1605C13.9823 17.1605 13.983 17.2103 14.04 16.9543C14.04 16.949 14.0443 16.944 14.0457 16.9387C14.1159 16.6896 14.1859 16.4407 14.2555 16.1921C14.3218 15.96 14.3842 15.7249 14.4525 15.4925C14.4644 15.4424 14.4878 15.3959 14.5208 15.3565C14.5539 15.317 14.5956 15.2859 14.6428 15.2653C14.7343 15.2279 14.8301 15.2007 14.9236 15.1682C15.1262 15.0982 15.3341 15.0396 15.53 14.954C15.7893 14.841 16.0403 14.709 16.2926 14.5803C16.4361 14.5074 16.577 14.4786 16.7236 14.5618C17.2007 14.8307 17.6784 15.0976 18.1539 15.3691C18.2096 15.4023 18.2417 15.3937 18.2819 15.3529C18.3996 15.2322 18.5186 15.1132 18.6376 14.9938C18.9124 14.7186 19.1877 14.4436 19.4635 14.1689C19.5069 14.1254 19.5242 14.093 19.4877 14.0286C19.2172 13.5525 18.9523 13.0737 18.6857 12.5953C18.6528 12.539 18.6354 12.475 18.6351 12.4098C18.6348 12.3447 18.6517 12.2805 18.684 12.2239C18.7722 12.0529 18.8647 11.8841 18.9493 11.7107C19.1143 11.3683 19.246 11.0107 19.3425 10.6431C19.3886 10.4673 19.4788 10.3397 19.6714 10.3052C19.7496 10.291 19.8249 10.2611 19.9018 10.2389C20.145 10.1706 20.3889 10.1027 20.6336 10.0353C20.8192 9.9836 21.0046 9.93121 21.1906 9.88048C21.2615 9.86125 21.29 9.82279 21.29 9.74421C21.2867 9.21372 21.29 8.68322 21.29 8.15272C21.29 8.02441 21.2781 8.01148 21.1538 7.97899C20.9621 7.92892 20.7708 7.87786 20.5802 7.82415C20.2818 7.74026 19.9834 7.6461 19.682 7.57084C19.4857 7.5221 19.3899 7.40506 19.3362 7.2164C19.267 6.9674 19.1831 6.72272 19.0849 6.48365C18.9722 6.21542 18.8356 5.95747 18.7056 5.69653C18.6366 5.5586 18.6061 5.42233 18.6874 5.27909C18.9556 4.79866 19.2221 4.31757 19.4933 3.8388C19.5232 3.78542 19.5156 3.75524 19.4774 3.71778C19.373 3.61499 19.2705 3.51088 19.1671 3.40744C18.8753 3.11765 18.584 2.82732 18.2931 2.53643C18.26 2.50327 18.2305 2.46282 18.1671 2.49896C17.7305 2.74962 17.2885 2.99067 16.8555 3.24928C16.6437 3.37495 16.456 3.39617 16.2316 3.26586C15.9703 3.11926 15.6994 2.99076 15.4206 2.88125C15.1796 2.78178 14.9276 2.70984 14.6782 2.63258C14.6325 2.62111 14.5904 2.59843 14.5557 2.56659C14.521 2.53475 14.4947 2.49476 14.4793 2.45022C14.4253 2.29174 14.3799 2.12994 14.3351 1.9688C14.2288 1.58883 14.1235 1.20886 14.0191 0.828896C13.9972 0.749985 13.9611 0.711192 13.8696 0.711855C13.3312 0.716166 12.7927 0.713845 12.2543 0.714176C12.1489 0.714176 12.1306 0.733738 12.1034 0.836854C12.0388 1.08154 11.9708 1.32557 11.9045 1.5696C11.8329 1.82689 11.7619 2.08418 11.687 2.34015C11.6472 2.47675 11.5842 2.59478 11.4287 2.63524C11.3037 2.66839 11.1801 2.70619 11.0577 2.74763C10.6323 2.89186 10.2179 3.05996 9.83099 3.29206C9.69207 3.37561 9.54751 3.39683 9.39997 3.31361C8.92519 3.04637 8.44942 2.78046 7.97696 2.50957C7.91396 2.47343 7.88015 2.4857 7.83572 2.53079C7.62021 2.74863 7.40271 2.96481 7.18588 3.18131L6.65308 3.71446C6.61992 3.74762 6.59539 3.77414 6.62622 3.82819C6.87522 4.26552 7.11592 4.70748 7.36956 5.14216C7.4866 5.34342 7.52804 5.52577 7.39641 5.74295C7.19925 6.07458 7.03925 6.42695 6.91931 6.79366C6.86825 6.94452 6.82316 7.0977 6.77973 7.25121C6.73166 7.42296 6.6302 7.53403 6.44818 7.56984C6.37027 7.58542 6.295 7.61427 6.21809 7.63615L5.48635 7.83973C5.30069 7.89145 5.11535 7.94417 4.92935 7.9949C4.85807 8.01413 4.82989 8.05293 4.82989 8.13117C4.83353 8.63647 4.83187 9.14177 4.83187 9.64706C4.83187 9.85064 4.83022 9.85562 5.02451 9.91563C5.26654 9.99023 5.51089 10.0569 5.75392 10.1248C5.99694 10.1928 6.23765 10.2551 6.47835 10.3238C6.61097 10.3612 6.70845 10.4405 6.75055 10.5768C6.78371 10.6792 6.80626 10.7846 6.84438 10.8844C6.9591 11.182 7.07702 11.478 7.19815 11.7727C7.24122 11.8636 7.28914 11.9522 7.34171 12.0379C7.35914 12.0266 7.37596 12.0143 7.3921 12.0011C7.77107 11.6238 8.15069 11.2468 8.52667 10.8669C8.53612 10.8523 8.54216 10.8358 8.54434 10.8186C8.54652 10.8014 8.54479 10.7839 8.53927 10.7674C8.49418 10.6407 8.4345 10.5187 8.39239 10.3911C8.26938 10.0225 8.18547 9.64198 8.14207 9.25582C8.02227 8.14296 8.26869 7.02138 8.84396 6.06124C9.23643 5.40988 9.76423 4.85041 10.3916 4.42069C10.8142 4.1333 11.2793 3.91401 11.7699 3.77083C12.1395 3.6597 12.52 3.58834 12.9048 3.55797C13.6055 3.50406 14.3098 3.59433 14.9743 3.82321C15.2915 3.93313 15.5974 4.07302 15.8881 4.24098C16.9926 4.87859 17.8193 5.90562 18.2063 7.12091C18.3092 7.44096 18.3812 7.77017 18.4211 8.10398C18.4636 8.49423 18.4907 8.88614 18.4261 9.27671C18.381 9.55091 18.3376 9.82644 18.2693 10.0953C18.1768 10.444 18.0445 10.7809 17.8751 11.0993C17.6931 11.4545 17.4689 11.7863 17.2073 12.0877C16.8707 12.4791 16.476 12.8165 16.0369 13.088C15.6543 13.3201 15.2575 13.5257 14.8281 13.6487C14.5122 13.7355 14.191 13.802 13.8666 13.8476C13.3262 13.9298 12.7868 13.8904 12.2536 13.7813C11.9073 13.712 11.5698 13.6047 11.247 13.4613C11.186 13.4338 11.1519 13.4477 11.1104 13.4898C10.9436 13.6583 10.7756 13.8256 10.6065 13.9918C10.3913 14.2034 10.1755 14.4159 9.95034 14.638ZM0.799563 19.0199C0.83736 18.9898 0.865873 18.9705 0.89074 18.9467C1.19245 18.6469 1.49361 18.3468 1.79421 18.0461C2.04022 17.8001 2.28756 17.5571 2.53125 17.3074C2.65061 17.1851 2.78886 17.1546 2.94701 17.1917C3.07002 17.2206 3.19137 17.258 3.31172 17.2912C3.57696 17.3638 3.8422 17.4401 4.10744 17.507C4.28913 17.5528 4.42672 17.6397 4.47678 17.8306C4.50994 17.9613 4.54608 18.0912 4.58023 18.2219C4.64654 18.4775 4.7039 18.7361 4.78314 18.9881C4.8458 19.187 4.80966 19.3429 4.65847 19.4888C4.34682 19.7892 4.04345 20.0985 3.73743 20.4045C3.50512 20.6368 3.2737 20.8698 3.04316 21.1035C3.02499 21.1292 3.01018 21.1572 2.99907 21.1867C3.02726 21.2001 3.05683 21.2105 3.08726 21.2175C3.25303 21.2384 3.41881 21.2616 3.5879 21.2742C4.01692 21.3074 4.43103 21.2228 4.82491 21.064C5.33017 20.8629 5.76735 20.5215 6.0848 20.0799C6.3636 19.7053 6.55238 19.2714 6.6365 18.812C6.71997 18.3481 6.68774 17.8707 6.54267 17.4221C6.47636 17.2126 6.52212 17.0597 6.67529 16.9092C7.30888 16.2839 7.93684 15.6526 8.56513 15.0233L10.6589 12.9308C11.0819 12.5078 11.5045 12.0844 11.9267 11.6606C12.0351 11.5509 12.1588 11.4909 12.3126 11.52C12.5288 11.5612 12.7437 11.6155 12.9585 11.6573C13.2811 11.72 13.6044 11.6905 13.92 11.6218C14.1302 11.5761 14.3338 11.4932 14.5347 11.413C14.8674 11.2762 15.1662 11.0684 15.41 10.8039C15.8566 10.3321 16.1437 9.78035 16.2389 9.12983C16.2859 8.78815 16.2779 8.44116 16.2153 8.102C16.204 8.06176 16.1889 8.02268 16.1702 7.98529C16.1371 8.01678 16.1155 8.03668 16.0946 8.05757C15.5456 8.60553 14.9969 9.15381 14.4485 9.70244C14.3384 9.81318 14.2141 9.85263 14.0659 9.81616C13.8868 9.77206 13.7088 9.72299 13.5304 9.67657C13.2798 9.61026 13.0281 9.55091 12.7791 9.47996C12.674 9.45012 12.5819 9.38812 12.547 9.27439C12.4877 9.07546 12.432 8.87652 12.3773 8.67957C12.3196 8.4697 12.2712 8.2575 12.2069 8.04961C12.1442 7.84736 12.1651 7.68125 12.3266 7.52409C12.7244 7.13483 13.1137 6.73398 13.5065 6.3381C13.6561 6.1869 13.8066 6.03704 13.9558 5.88519C14.0079 5.83214 13.9982 5.8023 13.927 5.78572C13.911 5.78174 13.8938 5.78041 13.8782 5.77743C13.5193 5.71119 13.1514 5.70905 12.7917 5.77113C12.4784 5.8204 12.1753 5.92123 11.8949 6.06953C11.4127 6.3318 11.009 6.71783 10.7255 7.18788C10.5282 7.51249 10.3985 7.87359 10.3442 8.24954C10.2769 8.68411 10.3085 9.12827 10.4367 9.54892C10.4699 9.66298 10.5256 9.78102 10.4566 9.90137C10.4227 9.96396 10.3812 10.0221 10.333 10.0744C10.0273 10.3848 9.71826 10.6918 9.41058 11.0002C8.46942 11.9425 7.52826 12.8845 6.5871 13.8264C6.07585 14.337 5.56129 14.8443 5.04937 15.3542C4.932 15.4712 4.79706 15.523 4.63593 15.4756C4.41762 15.4082 4.19369 15.3606 3.96686 15.3333C3.57589 15.2921 3.18062 15.3331 2.80644 15.4537C2.40051 15.5803 2.02634 15.7923 1.70901 16.0753C1.23489 16.4971 0.941135 17.0196 0.789948 17.6274C0.698109 17.9961 0.700761 18.3714 0.744195 18.7467C0.75381 18.8346 0.778344 18.9191 0.799232 19.0199H0.799563ZM9.11915 10.2551L9.1586 10.2707C9.32637 10.0967 9.49214 9.92027 9.66322 9.74985C9.71627 9.69713 9.72025 9.64541 9.70765 9.57843C9.67449 9.40536 9.63968 9.23228 9.62078 9.05755C9.53624 8.27872 9.69969 7.55127 10.0893 6.8739C10.3626 6.39267 10.7418 5.97995 11.1983 5.66702C11.4848 5.4704 11.7914 5.30529 12.1286 5.21311C12.3767 5.14003 12.6296 5.08463 12.8856 5.04733C13.5267 4.9669 14.1777 5.0619 14.7691 5.3222C14.9601 5.40476 15.0565 5.54467 15.0313 5.73167C15.0164 5.84208 14.9428 5.919 14.8682 5.99361C14.2414 6.62003 13.6141 7.24591 12.9863 7.87123C12.9614 7.89245 12.9438 7.92093 12.9359 7.95268C12.928 7.98443 12.9302 8.01786 12.9423 8.04828C13.003 8.25694 13.0593 8.46693 13.111 8.67825C13.1475 8.82844 13.1773 8.85663 13.3272 8.89244C13.5334 8.94184 13.7383 8.99721 13.9412 9.05822C14.0221 9.08209 14.0785 9.0728 14.1401 9.01047C14.6965 8.45013 15.2545 7.89146 15.8141 7.33443C15.9119 7.23696 16.0068 7.1355 16.1125 7.04631C16.2843 6.89876 16.5561 6.95447 16.6414 7.16302C16.7325 7.38616 16.8071 7.61659 16.8774 7.84736C16.9653 8.13482 16.9848 8.43422 16.9832 8.73196C16.9813 9.2602 16.8643 9.78169 16.6404 10.2601C16.456 10.6615 16.2012 11.0266 15.8881 11.338C15.3978 11.8319 14.7751 12.1733 14.0951 12.3211C13.5414 12.4428 12.9837 12.4491 12.4313 12.2959C12.3624 12.2767 12.303 12.2803 12.253 12.3417C12.2114 12.3892 12.1672 12.4343 12.1203 12.4766C11.9917 12.5999 11.8627 12.7228 11.7334 12.8453L11.7477 12.8801C12.2398 13.076 12.7654 13.1736 13.295 13.1676C14.4926 13.1536 15.5363 12.7365 16.399 11.902C18.1894 10.1706 18.1867 7.30393 16.4693 5.57816C14.7519 3.85239 11.9522 3.77447 10.1397 5.55528C9.32007 6.36064 8.88408 7.35499 8.83634 8.50617C8.8118 9.1053 8.88806 9.69514 9.11915 10.2551Z" fill="#FF6600"></path></g></g><defs><clipPath id="clip0_207_7793"><rect width="22" height="22" fill="white"></rect></clipPath><clipPath id="clip1_207_7793"><rect width="22" height="22" fill="white"></rect></clipPath></defs></svg>